<?xml version="1.0" encoding="utf-8"?>
<!-- Svg Vector Icons : http://www.onlinewebfonts.com/icon -->
<!DOCTYPE svg PUBLIC "-//W3C//DTD SVG 1.1//EN" "http://www.w3.org/Graphics/SVG/1.1/DTD/svg11.dtd">
<svg version="1.1" xmlns="http://www.w3.org/2000/svg" xmlns:xlink="http://www.w3.org/1999/xlink" x="0px" y="0px" viewBox="0 0 256 256" enable-background="new 0 0 256 256" xml:space="preserve">
<metadata> Svg Vector Icons : http://www.onlinewebfonts.com/icon </metadata>
<g><g><g><path fill="#000000" d="M14.7,12.7c-1.6,0.8-2.8,1.9-3.5,3.3L10,18.1v89.8c0,86.9,0.1,89.9,1,92c0.7,1.5,1.7,2.6,3.3,3.4c59.2,33.5,72,40.6,73.4,40.9c2.5,0.5,6.1-1,7.8-3.3l1.4-1.8l0.2-17.1l0.2-17.1l34.8-0.2c34-0.2,34.9-0.2,36.7-1.3c1-0.6,2.4-1.8,3-2.8l1.2-1.7v-28.4v-28.4h-8.1h-8.1v23v23H127H97.2l-0.1-65.7L97,56.7L95.6,55c-0.9-1.2-7.6-5.3-22.5-13.7c-11.6-6.6-21.5-12.2-21.9-12.5c-0.5-0.3,20.2-0.5,52.4-0.5h53.1v29.5v29.5h8.1h8.1V52.4V17.5l-1.1-1.7c-0.7-0.9-1.9-2.2-2.7-2.8l-1.5-1.1l-75.3-0.2L17,11.6L14.7,12.7z"/><path fill="#000000" d="M191.9,78.1l-1.5,1.3l-0.2,11.8l-0.2,11.8h-22c-13.1,0-23,0.3-24.4,0.6c-5.5,1.3-9.1,5.7-9.1,11.2c0.1,4.7,2.1,8.1,6.3,10.3c2,1.1,2.7,1.1,25.7,1.3l23.6,0.2l0.2,11.7l0.2,11.8l1.8,1.6c1.5,1.3,2.1,1.5,3.5,1.3c2.1-0.4,48.7-33.9,49.8-36c0.5-1,0.6-1.8,0.3-3.3c-0.5-1.8-2-3-24.5-19.4c-21.4-15.5-24.2-17.4-26-17.4C194,76.9,192.9,77.3,191.9,78.1z"/></g></g></g>
</svg>