<?xml version="1.0" encoding="utf-8"?>

<!DOCTYPE svg PUBLIC "-//W3C//DTD SVG 1.1//EN" "http://www.w3.org/Graphics/SVG/1.1/DTD/svg11.dtd">
<!-- Uploaded to: SVG Repo, www.svgrepo.com, Generator: SVG Repo Mixer Tools -->
<svg height="800px" width="800px" version="1.1" id="_x32_" xmlns="http://www.w3.org/2000/svg" xmlns:xlink="http://www.w3.org/1999/xlink" 
	 viewBox="0 0 512 512"  xml:space="preserve">
<style type="text/css">
	.st0{fill:#000000;}
</style>
<g>
	<path class="st0" d="M450.498,155.424h-22.156v137.153h22.156c15.036,0,27.214-12.185,27.214-27.213v-82.719
		C477.711,167.61,465.533,155.424,450.498,155.424z"/>
	<path class="st0" d="M438.841,0h-29.7H73.158c-21.47,0-38.87,17.407-38.87,38.87v434.253c0,21.471,17.399,38.877,38.87,38.877
		h297.106c21.471,0,38.877-17.406,38.877-38.877V137.146h41.356c15.036,0,27.214-12.179,27.214-27.207V38.87
		C477.711,17.407,460.305,0,438.841,0z M161.891,207.088c0-35.871,29.071-64.948,64.948-64.948
		c35.863,0,64.934,29.078,64.934,64.948v15.556c0,35.863-29.071,64.934-64.934,64.934c-35.877,0-64.948-29.071-64.948-64.934
		V207.088z M306.245,389.825c-21.007,0-79.405,0-79.405,0s-58.412,0-79.419,0c-21.006,0-30.528-30.549-18.378-52.134
		c9.15-16.278,24.142-34.714,48.563-45.199c13.964,9.764,30.928,15.514,49.234,15.514c18.285,0,35.256-5.75,49.22-15.514
		c24.414,10.485,39.414,28.92,48.57,45.199C336.773,359.276,327.251,389.825,306.245,389.825z"/>
</g>
</svg>